<svg xmlns="http://www.w3.org/2000/svg" width="80" viewBox="30 33 92 80" height="80" version="1.1" fill="#33333" xmlns:xlink="http://www.w3.org/1999/xlink">
  <rect x="" width="130" fill="#3B5A45" y="0" height="120" fill-opacity="1"/>
  <defs>
    <clipPath id="a">
      <path d="M31.648 31.625h86.806v86.806H31.648Zm0 0"></path>
    </clipPath>
    <clipPath id="b">
      <path d="M33.524 33.524h82.917v82.917H33.524Zm0 0"></path>
    </clipPath>
    <clipPath id="c">
      <path d="M64.971 80.955h13.851v10.268H64.971Zm0 0"></path>
    </clipPath>
    <clipPath id="d">
      <path d="M91.481 61.852h8.104v7.037h-8.104Zm0 0"></path>
    </clipPath>
    <clipPath id="e">
      <path d="M50.002 73.333h7.22v6.296h-7.22Zm0 0"></path>
    </clipPath>
  </defs>
  <g clip-path="url(#a)">
    <path fill="#fff" d="M75.022 118.375c-23.91 0-43.375-19.466-43.375-43.375 0-23.91 19.465-43.375 43.375-43.375 23.909 0 43.375 19.465 43.375 43.375 0 23.909-19.466 43.375-43.375 43.375Zm0-86.108C51.455 32.266 32.289 51.432 32.289 75s19.166 42.734 42.734 42.734c23.567 0 42.733-19.166 42.733-42.734S98.589 32.266 75.022 32.266Zm0 0"></path>
  </g>
  <g clip-path="url(#b)">
    <path fill="#fff" d="M76.418 116.165a.284.284 0 0 1 .274-.297.282.282 0 0 1 .292.273.284.284 0 0 1-.269.297h-.011a.288.288 0 0 1-.286-.273Zm1.701-.09a.279.279 0 0 1 .257-.308.288.288 0 0 1 .308.262.286.286 0 0 1-.261.304h-.02a.281.281 0 0 1-.284-.257Zm1.692-.164a.284.284 0 0 1 .249-.315.282.282 0 0 1 .316.245.284.284 0 0 1-.249.315c-.012 0-.02.004-.032.004a.286.286 0 0 1-.284-.25Zm1.688-.234a.279.279 0 0 1 .234-.324.278.278 0 0 1 .324.234.278.278 0 0 1-.234.323c-.015.004-.028.004-.043.004a.28.28 0 0 1-.281-.237Zm1.672-.301a.284.284 0 0 1 .222-.335.283.283 0 0 1 .335.222.286.286 0 0 1-.218.336c-.019.004-.039.004-.059.004a.284.284 0 0 1-.281-.226Zm1.664-.37a.28.28 0 0 1 .203-.343.287.287 0 0 1 .347.202.285.285 0 0 1-.207.347c-.023.004-.046.009-.07.009a.283.283 0 0 1-.273-.216Zm1.642-.441a.285.285 0 0 1 .19-.351h.004a.282.282 0 1 1 .16.541.268.268 0 0 1-.083.012.286.286 0 0 1-.272-.203Zm1.63-.508a.287.287 0 0 1 .175-.362.289.289 0 0 1 .363.179.281.281 0 0 1-.176.359.249.249 0 0 1-.093.016.287.287 0 0 1-.269-.192Zm1.607-.576a.282.282 0 0 1 .159-.367.285.285 0 0 1 .37.16.28.28 0 0 1-.164.366.282.282 0 0 1-.366-.16Zm1.579-.644a.28.28 0 0 1 .148-.37.283.283 0 0 1 .375.145.285.285 0 0 1-.261.398.283.283 0 0 1-.261-.172Zm1.552-.705a.288.288 0 0 1 .132-.383.286.286 0 0 1 .378.132.281.281 0 0 1-.129.378.293.293 0 0 1-.125.032.29.29 0 0 1-.257-.16Zm1.52-.772a.286.286 0 0 1 .117-.386.28.28 0 0 1 .382.117.282.282 0 0 1-.113.382.28.28 0 0 1-.137.035.286.286 0 0 1-.25-.148Zm1.489-.834a.282.282 0 0 1 .098-.39.281.281 0 0 1 .386.101.277.277 0 0 1-.098.386.273.273 0 0 1-.144.043.278.278 0 0 1-.242-.14Zm1.45-.894a.287.287 0 0 1 .078-.394h.004a.279.279 0 0 1 .39.082.284.284 0 0 1-.082.394.277.277 0 0 1-.156.047.285.285 0 0 1-.234-.129Zm1.411-.956a.28.28 0 0 1 .067-.394.282.282 0 1 1 .328.46.28.28 0 0 1-.164.055.283.283 0 0 1-.231-.122Zm1.373-1.01a.281.281 0 0 1 .046-.398.283.283 0 0 1 .399.051.286.286 0 0 1-.047.399.295.295 0 0 1-.176.058.267.267 0 0 1-.222-.109Zm1.325-1.064a.284.284 0 0 1 .035-.401.279.279 0 0 1 .398.035.283.283 0 0 1-.031.398.285.285 0 0 1-.184.066.287.287 0 0 1-.219-.098Zm1.283-1.119a.286.286 0 0 1 .015-.401.286.286 0 0 1 .401.015.282.282 0 0 1-.016.401.28.28 0 0 1-.19.074.294.294 0 0 1-.211-.09Zm1.236-1.17a.285.285 0 0 1 0-.401.28.28 0 0 1 .401 0 .287.287 0 0 1 0 .401.283.283 0 0 1-.199.082.284.284 0 0 1-.203-.082Zm1.185-1.22a.285.285 0 0 1-.015-.401.283.283 0 0 1 .401-.02c.117.109.12.288.015.401a.278.278 0 0 1-.207.093.307.307 0 0 1-.194-.074Zm1.139-1.272a.279.279 0 0 1-.035-.397.283.283 0 0 1 .401-.035.287.287 0 0 1-.184.503.264.264 0 0 1-.182-.07Zm1.079-1.309a.29.29 0 0 1-.05-.402.288.288 0 0 1 .401-.047.283.283 0 0 1 .047.398.284.284 0 0 1-.222.109.3.3 0 0 1-.176-.059Zm1.026-1.357a.286.286 0 0 1-.062-.399.285.285 0 0 1 .394-.066.286.286 0 0 1 .066.398.282.282 0 0 1-.234.117.29.29 0 0 1-.164-.051Zm.971-1.396a.287.287 0 0 1-.082-.394.283.283 0 0 1 .394-.082.278.278 0 0 1 .082.389.278.278 0 0 1-.238.13.311.311 0 0 1-.156-.044Zm.912-1.434a.281.281 0 0 1-.098-.389.283.283 0 1 1 .242.428.344.344 0 0 1-.144-.039Zm.85-1.474a.281.281 0 0 1-.113-.382.28.28 0 0 1 .382-.117.284.284 0 0 1 .117.386.289.289 0 0 1-.25.148.278.278 0 0 1-.136-.035Zm.791-1.506a.285.285 0 0 1-.132-.378.285.285 0 0 1 .382-.129.28.28 0 0 1 .129.378.288.288 0 0 1-.254.159.275.275 0 0 1-.125-.031Zm.725-1.536c-.144-.062-.21-.23-.144-.37a.285.285 0 0 1 .375-.148.287.287 0 0 1 .144.375.283.283 0 0 1-.261.167.28.28 0 0 1-.114-.023Zm.66-1.563a.286.286 0 0 1-.16-.367.282.282 0 0 1 .37-.159.283.283 0 0 1 .16.366.287.287 0 0 1-.266.179.26.26 0 0 1-.105-.019Zm.6-1.595a.279.279 0 0 1-.176-.359.281.281 0 0 1 .359-.176.282.282 0 0 1 .176.359.284.284 0 0 1-.359.176Zm.53-1.615a.282.282 0 0 1-.192-.354.285.285 0 0 1 .351-.191.282.282 0 0 1 .191.354.282.282 0 0 1-.269.203.284.284 0 0 1-.081-.012Zm.46-1.638a.282.282 0 0 1-.203-.346.28.28 0 0 1 .343-.203.28.28 0 0 1 .207.343.288.288 0 0 1-.277.215c-.023.001-.046-.004-.069-.008Zm.397-1.656a.284.284 0 0 1-.221-.336.284.284 0 0 1 .335-.219.279.279 0 0 1 .222.331.283.283 0 0 1-.281.226c-.016 0-.035 0-.055-.004Zm.324-1.673a.282.282 0 0 1-.234-.324.282.282 0 0 1 .327-.234.282.282 0 0 1 .234.323.284.284 0 0 1-.281.238c-.016 0-.032 0-.047-.004Zm.257-1.681a.287.287 0 0 1-.25-.316v-.004a.285.285 0 0 1 .316-.246.289.289 0 0 1 .25.32v-.004a.288.288 0 0 1-.285.25h-.031Zm.183-1.691a.282.282 0 0 1-.257-.308.278.278 0 0 1 .304-.258.283.283 0 0 1 .261.304.29.29 0 0 1-.284.262h-.024Zm.116-1.701a.281.281 0 0 1-.273-.292.285.285 0 0 1 .297-.274.289.289 0 0 1 .274.297.287.287 0 0 1-.285.273c-.004 0-.008 0-.012-.004Zm-.273-3.692h.004a.278.278 0 0 1 .269-.293.284.284 0 0 1 .296.269.282.282 0 0 1-.273.296h-.012a.284.284 0 0 1-.284-.273Zm-.101-1.685a.287.287 0 0 1 .261-.308.284.284 0 0 1 .043.566h-.023a.285.285 0 0 1-.281-.258Zm-.171-1.684a.282.282 0 0 1 .246-.316.285.285 0 0 1 .316.25.284.284 0 0 1-.246.316h-.036a.285.285 0 0 1-.281-.25Zm-.242-1.673a.277.277 0 0 1 .234-.323.279.279 0 0 1 .324.234.28.28 0 0 1-.234.323c-.015.004-.027.004-.043.004a.286.286 0 0 1-.281-.238Zm-.312-1.661a.285.285 0 0 1 .218-.336.288.288 0 0 1 .339.219.287.287 0 0 1-.221.339c-.02.004-.04.004-.059.004a.282.282 0 0 1-.277-.226Zm-.378-1.646a.28.28 0 0 1 .206-.346.281.281 0 0 1 .343.206.281.281 0 0 1-.206.344.233.233 0 0 1-.071.012.282.282 0 0 1-.272-.215Zm-.448-1.633v.004a.284.284 0 0 1 .191-.354.29.29 0 0 1 .355.191.287.287 0 0 1-.272.366.284.284 0 0 1-.273-.206Zm-.515-1.615a.281.281 0 0 1 .176-.359.281.281 0 0 1 .359.176.284.284 0 0 1-.176.362c-.031.008-.061.016-.093.016a.278.278 0 0 1-.266-.195Zm-.584-1.587a.285.285 0 0 1 .16-.37.282.282 0 0 1 .366.164.28.28 0 0 1-.159.366.321.321 0 0 1-.102.02.287.287 0 0 1-.265-.179Zm-.651-1.567a.285.285 0 0 1 .147-.375.287.287 0 0 1 .375.148.289.289 0 0 1-.148.375.284.284 0 0 1-.113.023.29.29 0 0 1-.261-.171Zm-.71-1.537a.281.281 0 0 1 .128-.378.281.281 0 0 1 .378.129.287.287 0 0 1-.128.383.281.281 0 0 1-.125.027.278.278 0 0 1-.253-.16Zm-.78-1.505a.281.281 0 0 1 .116-.383.283.283 0 0 1 .383.113.287.287 0 0 1-.114.386.288.288 0 0 1-.136.036.281.281 0 0 1-.249-.152Zm-.839-1.471a.287.287 0 0 1 .101-.39.282.282 0 0 1 .386.102.28.28 0 0 1-.098.386.278.278 0 0 1-.144.044.288.288 0 0 1-.246-.141Zm-.897-1.434a.279.279 0 0 1 .083-.39.283.283 0 0 1 .394.082.283.283 0 0 1-.082.39.283.283 0 0 1-.156.047.277.277 0 0 1-.238-.129Zm-.955-1.396a.278.278 0 0 1 .066-.393.279.279 0 0 1 .394.066.279.279 0 0 1-.067.394.278.278 0 0 1-.394-.067Zm-1.014-1.353a.281.281 0 0 1 .051-.398.284.284 0 0 1 .398.047.281.281 0 0 1-.051.398.267.267 0 0 1-.171.062.289.289 0 0 1-.226-.109Zm-1.068-1.314a.28.28 0 0 1 .035-.398.28.28 0 0 1 .398.032.288.288 0 0 1-.031.401.306.306 0 0 1-.184.066.284.284 0 0 1-.218-.101Zm-1.12-1.263a.288.288 0 0 1 .016-.402.281.281 0 0 1 .401.016.287.287 0 0 1-.016.401.284.284 0 0 1-.194.074.287.287 0 0 1-.207-.09Zm-1.169-1.22a.28.28 0 0 1 0-.402.275.275 0 0 1 .397 0h.004a.289.289 0 0 1 0 .402.295.295 0 0 1-.203.082.277.277 0 0 1-.198-.082Zm-1.221-1.17a.281.281 0 0 1-.015-.402.276.276 0 0 1 .398-.015.284.284 0 0 1 .02.401.296.296 0 0 1-.211.09.275.275 0 0 1-.192-.074Zm-1.267-1.119a.283.283 0 0 1-.035-.401.287.287 0 0 1 .401-.032.281.281 0 0 1 .032.398.281.281 0 0 1-.215.101.289.289 0 0 1-.182-.066Zm-1.31-1.069a.281.281 0 0 1-.051-.398.285.285 0 0 1 .399-.046.285.285 0 0 1 .051.397.294.294 0 0 1-.226.109.267.267 0 0 1-.171-.062Zm-1.358-1.01a.286.286 0 0 1-.066-.394.286.286 0 0 1 .398-.067.281.281 0 0 1 .066.394.291.291 0 0 1-.234.121.298.298 0 0 1-.164-.055Zm-1.391-.951a.284.284 0 0 1-.082-.394.284.284 0 0 1 .394-.082.283.283 0 0 1 .078.394.286.286 0 0 1-.234.129.283.283 0 0 1-.156-.047Zm-1.431-.897a.284.284 0 0 1-.101-.39.29.29 0 0 1 .39-.098.286.286 0 0 1 .101.39.284.284 0 0 1-.246.137.271.271 0 0 1-.144-.039Zm-1.47-.834a.287.287 0 0 1-.113-.386.286.286 0 0 1 .386-.113.287.287 0 0 1 .113.386.283.283 0 0 1-.387.113Zm-1.497-.772a.293.293 0 0 1-.132-.383.286.286 0 0 1 .382-.129.281.281 0 0 1 .129.378.277.277 0 0 1-.253.16.284.284 0 0 1-.125-.027Zm-1.532-.714a.285.285 0 0 1-.144-.374.286.286 0 0 1 .374-.144c.145.062.207.23.145.375a.284.284 0 0 1-.257.171.25.25 0 0 1-.117-.027Zm-1.555-.643a.285.285 0 0 1 .206-.531.28.28 0 0 1 .16.367.279.279 0 0 1-.366.164Zm-1.587-.585a.282.282 0 0 1-.176-.359.281.281 0 0 1 .359-.175.281.281 0 0 1 .176.359.281.281 0 0 1-.359.175Zm-1.611-.515a.283.283 0 0 1 .164-.542.285.285 0 0 1 .192.352.287.287 0 0 1-.274.203.294.294 0 0 1-.082-.012Zm-1.629-.448a.28.28 0 0 1-.203-.343.28.28 0 0 1 .343-.207.287.287 0 0 1 .206.346.286.286 0 0 1-.276.211.18.18 0 0 1-.069-.007Zm-1.646-.378a.285.285 0 0 1-.221-.336.288.288 0 0 1 .339-.222c.152.031.25.183.219.336a.28.28 0 0 1-.277.226c-.02 0-.039 0-.059-.004Zm-1.66-.312a.284.284 0 1 1 .094-.562.281.281 0 0 1 .229.327.281.281 0 0 1-.276.238c-.015 0-.031-.004-.046-.004Zm-1.673-.242a.284.284 0 1 1 .067-.565h.004a.287.287 0 0 1 .246.316.286.286 0 0 1-.281.249h-.035Zm-1.684-.175a.281.281 0 0 1-.257-.304.284.284 0 0 1 .304-.262.29.29 0 0 1 .262.308.285.285 0 0 1-.285.261c-.007 0-.015 0-.023-.004Zm-1.685-.101a.284.284 0 0 1-.273-.297.281.281 0 0 1 .297-.273c.156.008.277.14.268.296a.283.283 0 0 1-.28.273h-.012ZM33.829 73.56a.288.288 0 0 1-.273-.297.284.284 0 0 1 .297-.269.283.283 0 0 1 .273.292.287.287 0 0 1-.285.273h-.011Zm.093-1.7a.284.284 0 0 1-.261-.305.288.288 0 0 1 .308-.261.277.277 0 0 1 .257.304.284.284 0 0 1-.281.261h-.023Zm.164-1.692a.292.292 0 0 1-.25-.32.285.285 0 0 1 .315-.246.285.285 0 0 1 .25.316.286.286 0 0 1-.281.25h-.035Zm.23-1.688a.289.289 0 0 1-.234-.328.284.284 0 0 1 .328-.23.282.282 0 0 1 .234.324.283.283 0 0 1-.281.237c-.015 0-.031 0-.046-.004Zm.3-1.673a.289.289 0 0 1-.219-.339.286.286 0 0 1 .336-.219.283.283 0 0 1 .222.335.287.287 0 0 1-.281.226c-.02 0-.039 0-.059-.004Zm.374-1.665a.281.281 0 0 1-.206-.343.285.285 0 0 1 .343-.207.287.287 0 0 1 .206.347.281.281 0 0 1-.273.214.22.22 0 0 1-.07-.012Zm.441-1.641a.283.283 0 0 1-.191-.354.286.286 0 0 1 .352-.192.282.282 0 0 1 .19.355.283.283 0 0 1-.351.191Zm.507-1.626a.282.282 0 0 1-.176-.359.279.279 0 0 1 .359-.175.281.281 0 0 1 .176.359.278.278 0 0 1-.265.19.276.276 0 0 1-.094-.015Zm.573-1.602a.283.283 0 1 1 .207-.527.283.283 0 0 1 .164.367.284.284 0 0 1-.371.159Zm.64-1.571a.286.286 0 0 1-.145-.375.28.28 0 0 1 .375-.144.28.28 0 0 1 .144.37.278.278 0 0 1-.257.171.325.325 0 0 1-.117-.023Zm.705-1.548a.281.281 0 0 1-.129-.378.28.28 0 0 1 .378-.129c.14.067.199.238.132.378a.289.289 0 0 1-.257.16.275.275 0 0 1-.125-.031Zm.768-1.512a.288.288 0 0 1-.114-.386.286.286 0 0 1 .386-.114.281.281 0 0 1 .113.382.275.275 0 0 1-.249.149.286.286 0 0 1-.137-.031Zm.83-1.486a.284.284 0 0 1-.098-.386.286.286 0 0 1 .39-.101.286.286 0 0 1 .098.39.281.281 0 0 1-.242.14.298.298 0 0 1-.148-.043Zm.893-1.447a.283.283 0 0 1-.082-.394.288.288 0 0 1 .394-.083.287.287 0 0 1 .082.394.288.288 0 0 1-.238.129.283.283 0 0 1-.156-.047Zm.951-1.411a.281.281 0 0 1-.066-.394.281.281 0 0 1 .394-.066c.129.09.16.269.067.397a.286.286 0 0 1-.23.117.261.261 0 0 1-.164-.054Zm1.006-1.369a.285.285 0 0 1-.047-.398.286.286 0 0 1 .398-.051.29.29 0 0 1 .051.398.28.28 0 0 1-.226.109.294.294 0 0 1-.175-.059Zm1.064-1.33a.28.28 0 0 1-.03-.398.279.279 0 0 1 .397-.031.28.28 0 0 1 .036.398.291.291 0 0 1-.219.101.287.287 0 0 1-.184-.07Zm1.119-1.283a.276.276 0 0 1-.015-.397.279.279 0 0 1 .398-.019.285.285 0 0 1 .02.401.285.285 0 0 1-.211.093.281.281 0 0 1-.192-.078Zm1.17-1.235a.28.28 0 0 1 0-.402.288.288 0 0 1 .402 0 .288.288 0 0 1 0 .402.293.293 0 0 1-.203.085.291.291 0 0 1-.2-.085Zm1.22-1.186a.281.281 0 0 1 .016-.401.288.288 0 0 1 .401.015.283.283 0 0 1-.02.402.274.274 0 0 1-.191.074.287.287 0 0 1-.207-.09Zm1.267-1.139a.283.283 0 0 1 .031-.397.284.284 0 0 1 .402.031.285.285 0 0 1-.036.401.286.286 0 0 1-.183.066.276.276 0 0 1-.215-.101Zm1.314-1.084a.285.285 0 0 1 .046-.398.282.282 0 0 1 .399.051c.097.121.074.3-.047.398a.298.298 0 0 1-.176.059.27.27 0 0 1-.222-.109Zm1.357-1.029a.277.277 0 0 1 .066-.394h-.004a.282.282 0 0 1 .398.066.282.282 0 0 1-.067.394.286.286 0 0 1-.164.054.277.277 0 0 1-.229-.121Zm1.4-.971a.281.281 0 0 1 .082-.394.284.284 0 0 1 .39.082.284.284 0 0 1-.234.441.28.28 0 0 1-.237-.128Zm1.434-.917a.282.282 0 0 1 .102-.386.277.277 0 0 1 .386.098.282.282 0 0 1-.098.39.26.26 0 0 1-.144.039.288.288 0 0 1-.246-.14Zm1.478-.854a.282.282 0 0 1 .113-.382.284.284 0 0 1 .386.113.285.285 0 0 1-.117.386.266.266 0 0 1-.132.03.277.277 0 0 1-.249-.148Zm1.509-.791a.281.281 0 0 1 .129-.379.287.287 0 0 1 .383.129.287.287 0 0 1-.133.379.24.24 0 0 1-.124.03.281.281 0 0 1-.254-.159Zm1.54-.729a.285.285 0 0 1 .148-.375.281.281 0 0 1 .37.148c.067.14 0 .308-.144.37a.232.232 0 0 1-.114.027.29.29 0 0 1-.261-.171Zm1.571-.663a.284.284 0 0 1 .164-.367.28.28 0 0 1 .366.161.286.286 0 0 1-.16.366.245.245 0 0 1-.105.02.283.283 0 0 1-.266-.179Zm1.599-.6a.281.281 0 0 1 .176-.359.285.285 0 0 1 .362.176.284.284 0 0 1-.179.359.229.229 0 0 1-.089.016.286.286 0 0 1-.27-.192Zm1.623-.53a.288.288 0 0 1 .191-.355.29.29 0 0 1 .355.191.286.286 0 0 1-.191.354.294.294 0 0 1-.082.011.283.283 0 0 1-.273-.203Zm1.638-.464a.282.282 0 0 1 .206-.344.283.283 0 0 1 .343.207.28.28 0 0 1-.203.343c-.023.008-.047.008-.07.008a.286.286 0 0 1-.276-.214Zm1.657-.394a.286.286 0 0 1 .219-.335.282.282 0 0 1 .336.222.281.281 0 0 1-.219.335c-.019.004-.039.004-.059.004a.28.28 0 0 1-.277-.226Zm1.673-.323a.278.278 0 0 1 .234-.323.279.279 0 0 1 .324.23.282.282 0 0 1-.234.327c-.015.004-.031.004-.047.004a.277.277 0 0 1-.276-.238Zm1.68-.253a.285.285 0 0 1 .25-.316h-.004a.286.286 0 0 1 .32.246.287.287 0 0 1-.25.316c-.011.004-.023.004-.035.004a.285.285 0 0 1-.281-.249Zm1.692-.187a.285.285 0 0 1 .261-.305.281.281 0 0 1 .304.262.28.28 0 0 1-.257.304h-.027a.284.284 0 0 1-.281-.261Zm1.7-.113a.283.283 0 0 1 .269-.296h.004a.285.285 0 0 1 .292.273.28.28 0 0 1-.273.292c-.004.004-.009.004-.011.004a.284.284 0 0 1-.281-.273Zm-.015 82.286a.283.283 0 0 1 .292-.273c.156.008.281.14.273.297a.29.29 0 0 1-.296.274.284.284 0 0 1-.269-.297Zm-1.439.191a.29.29 0 0 1-.261-.308.28.28 0 0 1 .304-.257.282.282 0 0 1 .262.304.285.285 0 0 1-.285.261h-.019Zm-1.708-.176a.284.284 0 0 1-.245-.315.285.285 0 0 1 .316-.25c.156.02.269.159.245.315a.281.281 0 0 1-.281.25h-.036Zm-1.696-.245a.291.291 0 0 1-.234-.328.29.29 0 0 1 .329-.234.283.283 0 0 1 .234.328.284.284 0 0 1-.281.238c-.016 0-.031-.004-.047-.004Zm-1.685-.315a.286.286 0 0 1-.218-.336.283.283 0 0 1 .335-.221.287.287 0 0 1 .222.335.285.285 0 0 1-.28.226c-.02 0-.04 0-.059-.004Zm-1.669-.386a.285.285 0 0 1-.203-.347.278.278 0 0 1 .343-.203.278.278 0 0 1 .203.343.28.28 0 0 1-.273.215c-.023.001-.046-.004-.07-.007Zm-1.653-.456a.285.285 0 0 1-.191-.351.283.283 0 0 1 .354-.191.286.286 0 0 1 .192.351.288.288 0 0 1-.274.203.291.291 0 0 1-.082-.012Zm-1.63-.522a.286.286 0 0 1-.179-.359.284.284 0 0 1 .362-.175.281.281 0 0 1 .176.359.285.285 0 0 1-.269.191.233.233 0 0 1-.09-.016Zm-1.61-.589a.285.285 0 0 1-.16-.37.283.283 0 0 1 .527.206.287.287 0 0 1-.265.184.348.348 0 0 1-.101-.02Zm-1.579-.656c-.144-.061-.207-.229-.144-.374a.28.28 0 0 1 .375-.144.282.282 0 0 1 .144.371.283.283 0 0 1-.374.148Zm-1.552-.721a.281.281 0 0 1-.129-.378.284.284 0 0 1 .378-.132.291.291 0 0 1 .133.382.292.292 0 0 1-.382.129Zm-1.52-.783a.286.286 0 0 1-.114-.386.282.282 0 0 1 .383-.113.28.28 0 0 1 .117.382.285.285 0 0 1-.25.152.287.287 0 0 1-.136-.035Zm-1.486-.846a.281.281 0 0 1-.098-.389.28.28 0 0 1 .386-.098.28.28 0 0 1 .097.39.28.28 0 0 1-.242.137.271.271 0 0 1-.144-.04Zm-1.455-.909a.287.287 0 0 1-.082-.394.288.288 0 0 1 .394-.082.283.283 0 0 1 .083.394.288.288 0 0 1-.238.129.296.296 0 0 1-.156-.047Zm-1.411-.967a.286.286 0 0 1-.066-.398.285.285 0 0 1 .398-.061.28.28 0 0 1 .061.394.279.279 0 0 1-.23.121.293.293 0 0 1-.163-.055Zm-1.372-1.025a.284.284 0 0 1-.051-.398.285.285 0 0 1 .397-.051.287.287 0 0 1 .051.402.288.288 0 0 1-.222.109.287.287 0 0 1-.175-.062Zm-1.33-1.08a.28.28 0 0 1-.031-.398.279.279 0 0 1 .397-.035.288.288 0 0 1 .036.401.287.287 0 0 1-.219.097.271.271 0 0 1-.183-.066Zm-1.283-1.134a.283.283 0 0 1-.02-.401.287.287 0 0 1 .401-.016.28.28 0 0 1 .015.402.273.273 0 0 1-.206.093.281.281 0 0 1-.191-.078Zm-1.24-1.186a.287.287 0 0 1 0-.401.287.287 0 0 1 .401 0 .28.28 0 0 1 0 .401.277.277 0 0 1-.199.082.293.293 0 0 1-.202-.082Zm-1.186-1.236a.286.286 0 0 1 .016-.401.287.287 0 0 1 .401.015.288.288 0 0 1-.016.401.286.286 0 0 1-.195.077.272.272 0 0 1-.206-.093Zm-1.135-1.282a.283.283 0 0 1 .032-.401.285.285 0 0 1 .401.035.281.281 0 0 1-.035.398.266.266 0 0 1-.183.067.281.281 0 0 1-.215-.098Zm-1.084-1.33a.281.281 0 0 1 .051-.398.281.281 0 0 1 .398.047.281.281 0 0 1-.051.398.262.262 0 0 1-.171.062.287.287 0 0 1-.226-.109Zm-1.026-1.377a.28.28 0 0 1 .067-.394.278.278 0 0 1 .394.066.282.282 0 0 1-.066.394.283.283 0 0 1-.164.055.281.281 0 0 1-.23-.121Zm-.971-1.416a.28.28 0 0 1 .081-.39.287.287 0 0 1 .394.078.288.288 0 0 1-.082.394.282.282 0 0 1-.156.046.277.277 0 0 1-.238-.129Zm-.909-1.454a.277.277 0 0 1 .098-.386.281.281 0 1 1 .289.483.244.244 0 0 1-.145.043.277.277 0 0 1-.242-.14Zm-.85-1.489a.285.285 0 0 1 .114-.386.288.288 0 0 1 .386.113v.004a.281.281 0 0 1-.118.383.272.272 0 0 1-.132.035.284.284 0 0 1-.25-.148Zm-.788-1.525a.286.286 0 0 1 .129-.383.282.282 0 0 1 .378.133.282.282 0 0 1-.129.378.267.267 0 0 1-.124.027.288.288 0 0 1-.254-.156Zm-.717-1.559a.285.285 0 0 1 .148-.374.287.287 0 0 1 .374.148.287.287 0 0 1-.148.374.291.291 0 0 1-.114.024.29.29 0 0 1-.261-.172Zm-.655-1.587h-.004a.284.284 0 0 1 .164-.365.284.284 0 1 1 .207.529.34.34 0 0 1-.105.02.283.283 0 0 1-.262-.184Zm-.592-1.61a.285.285 0 0 1 .176-.362.282.282 0 0 1 .359.175.283.283 0 0 1-.176.362.23.23 0 0 1-.089.016.282.282 0 0 1-.27-.192Zm-.526-1.637a.289.289 0 0 1 .19-.355.29.29 0 0 1 .355.191.289.289 0 0 1-.192.355.286.286 0 0 1-.081.011.288.288 0 0 1-.272-.202Zm-.453-1.653a.281.281 0 0 1 .207-.344.28.28 0 0 1 .343.203.286.286 0 0 1-.206.347c-.024.004-.047.008-.07.008a.285.285 0 0 1-.273-.215Zm-.386-1.67a.287.287 0 0 1 .222-.339.284.284 0 0 1 .335.223.283.283 0 0 1-.222.335c-.019.004-.039.004-.054.004a.283.283 0 0 1-.281-.222Zm-.313-1.688a.28.28 0 0 1 .234-.324.279.279 0 0 1 .323.234.279.279 0 0 1-.234.324c-.016.004-.031.004-.047.004a.277.277 0 0 1-.277-.237Zm-.245-1.696a.28.28 0 0 1 .245-.316.285.285 0 0 1 .316.249.284.284 0 0 1-.246.316h-.035a.284.284 0 0 1-.281-.249Zm-.176-1.704a.285.285 0 0 1 .261-.304.278.278 0 0 1 .305.257.291.291 0 0 1-.261.308h-.024a.285.285 0 0 1-.281-.261Zm-.106-1.708a.288.288 0 0 1 .273-.297.28.28 0 0 1 .292.273h.004a.281.281 0 0 1-.273.292h-.011a.284.284 0 0 1-.285-.269Zm41.643 39.673a.294.294 0 0 0 .082-.199.29.29 0 0 0-.086-.203.294.294 0 0 0-.398 0 .295.295 0 0 0-.085.203.3.3 0 0 0 .085.203.294.294 0 0 0 .199.082.298.298 0 0 0 .203-.086ZM34.012 75.201a.294.294 0 0 0 .082-.203.29.29 0 0 0-.081-.199.287.287 0 0 0-.402 0 .273.273 0 0 0-.086.199c0 .075.031.144.086.203a.287.287 0 0 0 .199.082.3.3 0 0 0 .203-.082Zm41.185-41.194a.274.274 0 0 0 .086-.199.283.283 0 0 0-.086-.203.295.295 0 0 0-.401 0 .302.302 0 0 0-.082.203.286.286 0 0 0 .285.284.28.28 0 0 0 .198-.085Zm41.19 41.194a.28.28 0 0 0 .086-.203.287.287 0 0 0-.082-.199.293.293 0 0 0-.406 0 .286.286 0 0 0-.082.199.28.28 0 0 0 .082.198.28.28 0 0 0 .203.086.274.274 0 0 0 .199-.082Zm0 0"></path>
  </g>
  <path fill="#fff" d="M73.751 72.069c-1.17 1.194-2.541 2.179-3.957 3.066-1.422.883-2.907 1.654-4.371 2.452-.732.398-1.458.804-2.172 1.229-.716.42-1.419.862-2.096 1.337-1.354.948-2.611 2.042-3.622 3.338l-.232-.345a104.015 104.015 0 0 0 5.561-1.792 94.668 94.668 0 0 0 5.441-2.136 89.594 89.594 0 0 0 5.308-2.451 103.488 103.488 0 0 0 5.166-2.754 78.82 78.82 0 0 1-5.06 2.961 89.604 89.604 0 0 1-5.269 2.581 84.518 84.518 0 0 1-5.444 2.195 78.174 78.174 0 0 1-5.583 1.818l-.649.181.417-.527c1.055-1.333 2.355-2.443 3.737-3.396a31.313 31.313 0 0 1 2.133-1.338 61.865 61.865 0 0 1 2.211-1.187c1.486-.763 2.977-1.508 4.419-2.34 1.444-.825 2.829-1.765 4.062-2.891M57.395 83.601l1.45.035c.478.007.953.011 1.428-.006.475-.009.949-.04 1.426-.072l1.446-.114c-.444.214-.916.36-1.396.462a8.266 8.266 0 0 1-1.463.173 8.32 8.32 0 0 1-1.471-.093 6.135 6.135 0 0 1-1.419-.385"></path>
  <path fill="#fff" d="M67.181 80.293a27.45 27.45 0 0 0-2.048 1.434 22.306 22.306 0 0 0-1.879 1.621l-.229-.356c.389-.163.824-.084 1.152.105a1.705 1.705 0 0 1 .446.356c.128.146.224.308.302.475.153.336.225.688.268 1.029.019.174.034.333.043.515.004.178.001.397-.134.603a.621.621 0 0 1-.276.224.731.731 0 0 1-.326.053.945.945 0 0 1-.554-.235c-.284-.25-.463-.533-.641-.83a4.005 4.005 0 0 1-.533-1.945 4.66 4.66 0 0 0 .75 1.809c.093.133.194.259.299.38.108.121.216.238.333.323a.591.591 0 0 0 .358.131c.123-.003.22-.049.265-.126.106-.158.031-.531-.009-.844a3.067 3.067 0 0 0-.244-.898 1.408 1.408 0 0 0-.565-.634c-.244-.145-.533-.189-.77-.093l-1.113.445.883-.801a16.082 16.082 0 0 1 1.999-1.551 14.204 14.204 0 0 1 2.221-1.19"></path>
  <path fill="#fff" d="M65.159 85.817c.147-.185.318-.33.493-.464a4.419 4.419 0 0 1 .554-.352 4.323 4.323 0 0 1 .6-.267 2.75 2.75 0 0 1 .661-.154 2.665 2.665 0 0 1-.494.465 4.282 4.282 0 0 1-.554.352 4.41 4.41 0 0 1-.6.267 2.76 2.76 0 0 1-.661.153m6.461-5.129c.374-.621.699-1.28 1.193-1.82.244-.268.54-.506.898-.608.359-.113.746-.02 1.082.109.344.124.673.283 1.008.411.335.134.682.206 1.041.261.355.056.714.096 1.069.102.178.001.354-.007.524-.033.167-.025.333-.079.43-.168l.179.194c-.897.859-1.923 1.568-2.973 2.205-1.051.64-2.111 1.247-3.171 1.863l-1.595.912-1.603.899-3.22 1.771-.791.436.654-.616c.966-.909 1.932-1.816 2.839-2.784.903-.969 1.74-2.006 2.439-3.134Zm0 0c-.692 1.132-1.518 2.178-2.391 3.177-.872 1.002-1.798 1.957-2.725 2.905l-.137-.181 3.143-1.905 1.579-.94 1.587-.927 3.188-1.823c1.052-.613 2.094-1.246 3.001-2.051l.179.194c-.183.15-.386.187-.575.212-.191.02-.378.021-.564.011a7.776 7.776 0 0 1-1.092-.151 4.81 4.81 0 0 1-1.057-.315c-.336-.145-.656-.317-.99-.454-.329-.141-.691-.234-1.042-.136-.348.09-.647.316-.896.576-.495.532-.827 1.19-1.206 1.807"></path>
  <g clip-path="url(#c)">
    <path fill="#fff" d="M67.85 84.062c-.619.702-1.254 1.387-1.881 2.08l-.471.517c-.151.167-.267.346-.252.53.009.185.128.364.281.509.153.147.342.263.541.373.795.438 1.709.637 2.597.988.445.177.882.394 1.279.688.394.292.746.676.961 1.142l-.28-.113c1.294-.517 2.593-1.021 3.891-1.526l-.135.168a410.993 410.993 0 0 1 .873-5.124c.079-.428.171-.864.343-1.281.087-.207.194-.408.328-.592a2.803 2.803 0 0 1 .469-.484c.707-.561 1.576-.786 2.416-.97-.819.26-1.669.536-2.297 1.107a2.53 2.53 0 0 0-.679 1.03c-.143.393-.212.813-.272 1.238a427.271 427.271 0 0 1-.751 5.143l-.019.121-.116.046c-1.294.514-2.589 1.029-3.889 1.531l-.194.075-.085-.188c-.175-.387-.471-.716-.82-.984a5.202 5.202 0 0 0-1.172-.658c-.841-.349-1.771-.585-2.606-1.079a2.758 2.758 0 0 1-.592-.445c-.171-.181-.331-.422-.334-.712a.777.777 0 0 1 .11-.398c.067-.116.152-.211.236-.297.168-.17.336-.328.503-.492.673-.649 1.338-1.305 2.02-1.945"></path>
  </g>
  <path fill="#fff" d="M75.209 84.669c1.124.26 2.219.649 3.276 1.122a18.197 18.197 0 0 1 3.006 1.748c.472.336.928.71 1.366 1.07.441.354.904.674 1.415.811.508.133 1.066.071 1.64.012.289-.028.586-.054.893-.042.306.012.626.067.921.201l-.279.078c.637-.927.951-2.048 1.058-3.181.118-1.138.036-2.297-.087-3.448-.132-1.155-.297-2.316-.349-3.49-.041-1.17.022-2.366.394-3.479-.271 1.139-.286 2.311-.172 3.464.103 1.156.315 2.301.477 3.46.167 1.16.259 2.344.164 3.533-.101 1.181-.425 2.385-1.113 3.394l-.107.158-.171-.08c-.463-.214-1.022-.184-1.588-.131-.564.05-1.18.132-1.794-.041-.606-.176-1.103-.545-1.549-.915-.447-.377-.871-.747-1.327-1.094a20.04 20.04 0 0 0-2.895-1.832 20.302 20.302 0 0 0-3.18-1.318"></path>
  <path fill="#fff" d="M81.213 74.237a28.173 28.173 0 0 1 2.211-2.002 29.901 29.901 0 0 1 2.416-1.76 30.413 30.413 0 0 1 2.585-1.509 29.613 29.613 0 0 1 2.722-1.248l.257-.102.043.27c.095.601.193 1.202.281 1.804l.27 1.806.016.103-.074.064a14.269 14.269 0 0 0-1.939 2.036 14.071 14.071 0 0 0-.818 1.154 16.71 16.71 0 0 0-.705 1.233 11.274 11.274 0 0 1 .595-1.297 13.162 13.162 0 0 1 .741-1.228 12.898 12.898 0 0 1 1.883-2.171l-.059.166-.319-1.798c-.107-.599-.206-1.199-.306-1.8l.299.169a37.621 37.621 0 0 0-5.272 2.667 38.334 38.334 0 0 0-2.471 1.632 41.864 41.864 0 0 0-2.356 1.812m-23.767 7.051a1.974 1.974 0 0 1-.426-.324 3.712 3.712 0 0 1-.364-.397 3.376 3.376 0 0 1-.553-.948 1.605 1.605 0 0 1-.104-.572 1.05 1.05 0 0 1 .189-.601c.13-.178.313-.31.503-.389.188-.077.398-.13.624-.114.226.019.445.128.605.273.162.148.263.331.342.511.149.366.19.744.186 1.113a3.366 3.366 0 0 1-.182 1.079c-.064.166-.145.345-.307.44-.17.093-.363.014-.513-.07Zm0 0c.153.081.347.15.504.056.15-.097.208-.281.257-.444.083-.342.069-.702.018-1.044a2.965 2.965 0 0 0-.311-.961c-.154-.284-.378-.49-.639-.503a.972.972 0 0 0-.422.067.877.877 0 0 0-.359.227c-.19.199-.234.543-.173.875.058.336.197.669.386.969.19.298.43.575.739.758"></path>
  <path fill="#fff" d="M56.736 78.244a25.276 25.276 0 0 1 2.611-1.813 34.35 34.35 0 0 1 2.815-1.489c1.929-.891 3.926-1.62 5.949-2.245 1.014-.306 2.031-.595 3.05-.881 1.019-.284 2.038-.566 3.049-.87 2.023-.611 4.026-1.294 5.967-2.119 1.938-.83 3.82-1.785 5.574-2.935a27.167 27.167 0 0 0 2.515-1.887c.809-.674 1.651-1.365 2.646-1.836a5.261 5.261 0 0 1 1.587-.46 3.97 3.97 0 0 1 1.662.129 3.347 3.347 0 0 1 .768.359 2.2 2.2 0 0 1 .63.595c.163.242.288.534.273.859-.01.327-.215.637-.476.795-.259.165-.539.233-.807.281-.267.044-.53.08-.796.108a13.734 13.734 0 0 1-1.599.074 12.72 12.72 0 0 1-3.15-.444l.01-.044a14.05 14.05 0 0 0 3.138.26 13.29 13.29 0 0 0 1.563-.138c.257-.038.517-.085.77-.138.247-.056.49-.125.675-.253a.634.634 0 0 0 .299-.517c.006-.207-.087-.427-.223-.616-.273-.381-.736-.623-1.201-.764-.955-.263-2.015-.085-2.92.35-.924.436-1.733 1.102-2.554 1.764a27.625 27.625 0 0 1-2.582 1.879c-1.798 1.147-3.733 2.054-5.713 2.808-1.981.758-4 1.393-6.016 2.031a322.058 322.058 0 0 0-6.027 1.969 161.698 161.698 0 0 0-2.987 1.039 61.413 61.413 0 0 0-2.934 1.167c-.962.426-1.914.875-2.841 1.375a35.567 35.567 0 0 0-2.701 1.644l-.027-.036"></path>
  <g clip-path="url(#d)">
    <path fill="#fff" d="M94.708 62.414a18.861 18.861 0 0 1 3.743-.389l.475.001a.899.899 0 0 1 .289.047c.107.035.229.13.281.258a.541.541 0 0 1 .013.362 1.098 1.098 0 0 1-.118.263c-.096.15-.183.265-.276.399a15.386 15.386 0 0 1-1.2 1.471c-.436.459-.889.903-1.375 1.308-.491.4-.992.787-1.527 1.124a15.051 15.051 0 0 1-1.652.919c-.575.258-1.156.499-1.756.681a20.894 20.894 0 0 0 3.211-1.89c1-.727 1.935-1.54 2.771-2.447.425-.446.814-.926 1.187-1.417.089-.12.194-.252.27-.363.075-.108.108-.233.09-.257-.007-.018-.015-.032-.054-.049a.605.605 0 0 0-.171-.032l-.462-.026a34.628 34.628 0 0 0-3.736.039"></path>
  </g>
  <path fill="#fff" d="M66.899 72.076c-.625.461-1.287.873-1.97 1.246a17.693 17.693 0 0 1-2.121.986 18.433 18.433 0 0 1-4.544 1.132l-.185.022-.041-.187c-.296-1.362-.801-2.692-1.105-4.101-.071-.349-.143-.701-.179-1.071a3.216 3.216 0 0 1 .07-1.131c.1-.373.288-.736.592-1.008a1.613 1.613 0 0 1 1.112-.407c.394.002.77.114 1.106.284.334.171.629.39.911.607.553.442 1.123.832 1.738 1.176.612.343 1.249.646 1.897.926.65.279 1.31.534 1.968.799a40.076 40.076 0 0 1-2.022-.66 16.85 16.85 0 0 1-1.968-.831 11.785 11.785 0 0 1-1.82-1.133c-.562-.412-1.162-.781-1.808-.769a1.207 1.207 0 0 0-.831.319c-.222.207-.373.499-.455.807-.161.624-.017 1.314.128 1.999.288 1.363.794 2.695 1.073 4.109l-.225-.164a19.893 19.893 0 0 0 2.272-.364 20.499 20.499 0 0 0 2.221-.621 21.83 21.83 0 0 0 2.144-.864 21.996 21.996 0 0 0 2.043-1.103"></path>
  <path fill="#fff" d="M57.009 71.743a4.25 4.25 0 0 1-.957-.301c-.307-.143-.61-.347-.831-.644-.231-.294-.331-.675-.351-1.027a4.171 4.171 0 0 1 .1-1.023l.036-.176.161.002c.17.003.339-.012.509-.026.171-.015.339-.048.509-.08a6.286 6.286 0 0 0 1.013-.307 3.085 3.085 0 0 1-.93.577 3.576 3.576 0 0 1-1.086.251l.197-.174c-.038.32-.079.633-.063.933.012.299.081.579.233.823.153.244.379.455.635.642.258.184.543.35.824.529m3.142-3.594c2.16-.096 4.321-.162 6.481-.2 1.081-.025 2.161-.033 3.241-.05 1.081-.014 2.158.004 3.205-.144 1.048-.126 2.046-.51 3.085-.838a25.416 25.416 0 0 1 3.17-.77 24.518 24.518 0 0 1 6.483-.286 30.356 30.356 0 0 0-6.416.631 28.69 28.69 0 0 0-3.106.831c-1.013.333-2.049.736-3.154.878-1.097.145-2.188.124-3.266.124-1.081-.008-2.161-.009-3.241-.025a245.302 245.302 0 0 1-6.482-.15"></path>
  <g clip-path="url(#e)">
    <path fill="#fff" d="M57.053 74.156c-.598-.017-1.192-.061-1.788-.092a96.69 96.69 0 0 1-1.785-.131c-.294-.021-.605-.058-.872-.061a.92.92 0 0 0-.679.266c-.197.178-.37.416-.587.647a1.828 1.828 0 0 1-.384.326 1.074 1.074 0 0 1-.535.162l.181-.35c.376.54.7 1.115.983 1.708.277.592.507 1.223.684 1.835.094.294.223.561.458.686.232.131.548.115.841.028.299-.077.582-.234.887-.356.299-.126.639-.216.961-.146-.328-.017-.629.109-.909.257-.281.149-.548.341-.868.461-.31.116-.689.187-1.048.027a1.073 1.073 0 0 1-.423-.368 2.186 2.186 0 0 1-.237-.467c-.118-.315-.216-.606-.34-.902a13.004 13.004 0 0 0-.395-.867 13.267 13.267 0 0 0-.961-1.642l-.236-.347.418-.003c.211-.001.414-.135.606-.343.194-.2.375-.449.629-.662.128-.105.273-.205.445-.265.171-.063.348-.076.511-.072.328.013.607.072.906.108.591.08 1.181.169 1.77.261.588.101 1.178.188 1.765.302"></path>
  </g>
  <path fill="#fff" d="M56.098 78.377c-.284-.009-.564-.04-.844-.069a21.403 21.403 0 0 1-.834-.116l-.441-.071.388-.259a23.341 23.341 0 0 1 1-.636c.335-.208.68-.4 1.024-.593a23.771 23.771 0 0 1 1.054-.545c.357-.171.719-.335 1.094-.475-.304.26-.624.497-.946.726a23.402 23.402 0 0 1-.987.658c-.336.208-.671.416-1.016.609a23.305 23.305 0 0 1-1.041.566l-.053-.331c.27.076.538.158.806.245.266.091.533.181.795.292m1.628.114c.128-.154.273-.264.423-.365a2.908 2.908 0 0 1 .472-.246 2.839 2.839 0 0 1 .509-.158c.177-.034.359-.058.558-.038a1.85 1.85 0 0 1-.424.365 2.813 2.813 0 0 1-.472.246c-.164.067-.333.12-.509.157a1.892 1.892 0 0 1-.558.038m.679.851a1.43 1.43 0 0 1 .336-.344 2.098 2.098 0 0 1 .388-.227 2.004 2.004 0 0 1 .428-.139c.15-.029.305-.046.48-.022a1.413 1.413 0 0 1-.336.344 2.057 2.057 0 0 1-.817.365 1.433 1.433 0 0 1-.48.022m.337 1.013c.1-.135.208-.228.316-.315.11-.085.222-.157.339-.221a2.4 2.4 0 0 1 .37-.162c.133-.043.271-.081.438-.09-.054.159-.144.28-.246.388a1.434 1.434 0 0 1-.349.26 1.429 1.429 0 0 1-.409.147 1.064 1.064 0 0 1-.459-.007m.33-3.555a1.4 1.4 0 0 1 .823.116 1.735 1.735 0 0 1 1.003 1.324c.04.282.012.574-.114.823a4.153 4.153 0 0 0-.229-.731 2.859 2.859 0 0 0-.35-.611 2.837 2.837 0 0 0-.492-.503 4.113 4.113 0 0 0-.642-.418m1.18-.147c.248.069.466.198.665.35a2.73 2.73 0 0 1 .519.538 2.654 2.654 0 0 1 .353.659c.084.236.139.483.129.74-.168-.194-.303-.388-.442-.576l-.404-.559-.407-.556c-.136-.19-.278-.378-.412-.597m7.602-3.481c.23-.038.463.011.676.101a1.694 1.694 0 0 1 .562.403 1.673 1.673 0 0 1 .354.594c.071.22.099.456.042.683-.129-.193-.238-.364-.358-.523a5.405 5.405 0 0 0-.786-.857c-.149-.133-.31-.257-.491-.401m-1.839 7.894c.348.095.668.279.948.508a3.359 3.359 0 0 1 .719.817 3.347 3.347 0 0 1 .422 1.003c.084.352.109.72.042 1.074-.12-.339-.238-.656-.375-.962a7.471 7.471 0 0 0-.469-.877 7.441 7.441 0 0 0-.583-.806c-.216-.257-.45-.502-.703-.757m-1.873 2.098c.13-.173.282-.304.439-.425a3.467 3.467 0 0 1 .497-.312 3.35 3.35 0 0 1 .542-.226c.189-.058.385-.106.601-.112a2.2 2.2 0 0 1-.438.426 3.434 3.434 0 0 1-.498.313 3.642 3.642 0 0 1-.542.226 2.232 2.232 0 0 1-.601.112m.731.561a1.85 1.85 0 0 1 .402-.386 2.864 2.864 0 0 1 .456-.271c.159-.076.325-.138.499-.184a1.87 1.87 0 0 1 .553-.066 1.845 1.845 0 0 1-.401.386 2.784 2.784 0 0 1-.457.27 2.869 2.869 0 0 1-.498.183 1.937 1.937 0 0 1-.553.068m.398 1.134c.101-.15.222-.258.347-.356.127-.096.261-.175.401-.241a2.194 2.194 0 0 1 .443-.153 1.55 1.55 0 0 1 .497-.037c-.101.151-.222.26-.347.357a2.22 2.22 0 0 1-.402.241c-.14.065-.288.117-.443.153a1.546 1.546 0 0 1-.496.037m13.185-4.568a35.579 35.579 0 0 1 2.569-3.205 42.416 42.416 0 0 1 6.047-5.558 35.548 35.548 0 0 1 3.41-2.289 131.499 131.499 0 0 0-3.192 2.564 83.523 83.523 0 0 0-6.01 5.522 130.553 130.553 0 0 0-2.823 2.965m-35.26-13.556-4.416-1.45.859-2.624.489.162-.677 2.066 1.377.451.214-.654c.147-.441.315-.766.504-.972.189-.209.393-.329.61-.362.219-.033.449-.009.691.069.403.133.68.359.831.677.15.318.13.766-.061 1.343Zm-.292-.715.223-.68c.131-.395.155-.694.072-.897-.081-.204-.26-.353-.538-.446-.284-.093-.512-.069-.686.069-.174.139-.33.422-.469.848l-.194.585Zm3.628-7.113-.272.518-3.66-1.919-.683 1.305c.265.181.543.376.836.584a79.741 79.741 0 0 1 .831.596 15.211 15.211 0 0 1 .66.504c.234.189.421.367.561.532.14.166.226.335.255.506.029.17-.008.353-.11.55a1.062 1.062 0 0 1-.127.188c-.048.06-.095.109-.139.148l-.431-.226a.768.768 0 0 0 .231-.284.351.351 0 0 0 .006-.344 1.21 1.21 0 0 0-.269-.341 18.122 18.122 0 0 0-.364-.321 14.635 14.635 0 0 0-.585-.449 47.143 47.143 0 0 0-.911-.66 184.977 184.977 0 0 0-1.123-.79l1.181-2.254Zm3.093-4.372-1.484-.422-1.114 1.464.807 1.311-.359.472-2.613-4.271.321-.422 4.806 1.389Zm-2.006-.599-1.432-.437a17.058 17.058 0 0 1-.194-.061 6.293 6.293 0 0 1-.278-.101 29.342 29.342 0 0 1-.217-.084 11.619 11.619 0 0 1 .431.584l.796 1.27Zm2.302-6.374.362.376-1.461 1.415 2.87 2.963-.42.408-3.232-3.339Zm6.748-2.159c.274.396.446.787.515 1.175a1.86 1.86 0 0 1-.116 1.097c-.149.346-.414.65-.796.914-.396.272-.781.418-1.157.437a1.795 1.795 0 0 1-1.065-.284c-.333-.208-.637-.51-.909-.906-.27-.389-.443-.776-.518-1.157a1.828 1.828 0 0 1 .11-1.094c.149-.347.422-.658.822-.935.382-.264.759-.405 1.131-.422.372-.017.727.075 1.065.278.337.203.643.502.917.897Zm-3.015 2.086c.332.48.694.789 1.088.926.395.137.809.056 1.241-.243.43-.299.649-.657.66-1.074.012-.417-.149-.865-.48-1.346-.334-.482-.696-.791-1.085-.926-.388-.134-.798-.053-1.23.246-.435.303-.66.661-.674 1.074-.013.413.147.861.48 1.343Zm7.199-6.733 1.707 3.756.541-.246.72 1.589-.512.231-.506-1.114-2.908 1.319.506 1.114-.512.234-.72-1.589.327-.15c.03-.307.041-.641.029-1.004a10.337 10.337 0 0 0-.093-1.114 10.899 10.899 0 0 0-.211-1.114 7.659 7.659 0 0 0-.324-1.027Zm-.307.717-.964.434c.088.239.168.517.237.833.07.315.126.644.171.987.044.344.074.682.09 1.016.015.332.009.633-.02.903l1.974-.894Zm5.935 2.303-1.609.475-.096-.324.492-.272-1.056-3.565-.561.029-.098-.324 1.609-.474.098.324-.489.281 1.056 3.565.559-.038Zm1.401-5.126.541-.078.359 2.526c.021.147.042.308.064.483.021.174.038.336.049.486l.029.318.026-.003 1.985-4.169.645-.093.657 4.601-.541.078-.359-2.5a13.509 13.509 0 0 1-.061-.506 23.263 23.263 0 0 1-.049-.504 11.024 11.024 0 0 0-.029-.327l-.023.003-1.991 4.193-.645.093Zm2.925-1.878c.015.328-.059.589-.223.781-.162.191-.448.315-.856.373-.421.06-.731.022-.929-.116-.197-.139-.329-.37-.396-.694l.53-.075c.053.23.136.378.246.443.11.066.279.082.506.049.198-.029.348-.093.449-.194.102-.1.148-.263.139-.489Zm7.387 5.98-.584-.023.09-2.164-2.378-.098-.09 2.164-.587-.023.191-4.644.587.023-.081 1.965 2.379.098.081-1.965.584.023Zm3.442-4.218.532.121-.567 2.489a19.641 19.641 0 0 1-.243.943 10.409 10.409 0 0 1-.09.307l.026.006 3.348-3.18.634.142-1.033 4.531-.532-.119.561-2.462a15.93 15.93 0 0 1 .258-.981c.042-.146.073-.252.093-.315l-.026-.006-3.359 3.2-.634-.144Zm6.749 1.851.501.217-1.016 2.341a19.744 19.744 0 0 1-.197.443 9.461 9.461 0 0 1-.211.44l-.148.286.026.009 3.874-2.509.596.258-1.849 4.262-.501-.217 1.007-2.318a22.603 22.603 0 0 1 .431-.914l.148-.295-.023-.009-3.892 2.526-.596-.257Zm3.475-.067c-.156.286-.354.468-.593.547-.239.08-.548.036-.926-.13-.39-.168-.633-.362-.729-.584-.097-.221-.089-.488.023-.799l.492.211c-.075.226-.084.396-.026.509.059.112.194.214.405.304.185.08.347.103.486.072.139-.033.263-.148.373-.347Zm0 0"></path>
  <g transform="translate(494.494 254.042)" fill="#fff"></g>
  <path d="m99.541 46.929-.367.44c.383.33.636.648.758.955.122.305.146.596.072.874a2.007 2.007 0 0 1-.411.778c-.135.16-.292.298-.472.414a1.459 1.459 0 0 1-.605.223c-.224.03-.468.004-.732-.081-.263-.083-.546-.246-.848-.489l-.457.55-.443-.37.457-.55c-.297-.259-.511-.512-.639-.761a1.582 1.582 0 0 1-.2-.709 1.552 1.552 0 0 1 .121-.631 2.141 2.141 0 0 1 .318-.521c.194-.233.422-.409.683-.529.262-.121.556-.15.883-.087.326.062.683.25 1.071.564l.368-.44Zm-1.126.449c-.276-.22-.526-.354-.749-.405a.913.913 0 0 0-.608.049 1.475 1.475 0 0 0-.506.402c-.247.297-.358.603-.333.917.024.315.22.635.584.964Zm.443.37-1.611 1.927c.399.31.755.446 1.068.405.314-.041.591-.204.831-.489.16-.191.264-.384.312-.576a.913.913 0 0 0-.069-.605c-.093-.212-.269-.433-.53-.663Zm5.018 7.273c-.372.305-.749.507-1.128.608-.381.1-.749.09-1.106-.032-.355-.122-.679-.363-.972-.724-.305-.372-.481-.745-.529-1.117-.046-.373.02-.734.2-1.082.181-.351.458-.678.83-.981.368-.301.739-.504 1.114-.608a1.83 1.83 0 0 1 1.099.026c.357.12.689.368.995.744.293.359.463.723.509 1.094.048.372-.016.733-.191 1.085-.174.353-.448.681-.822.986Zm-2.317-2.844c-.454.37-.732.757-.836 1.161-.104.403.009.808.341 1.215.33.406.703.6 1.12.579.417-.022.851-.217 1.305-.587.453-.37.731-.755.833-1.154.104-.398-.01-.799-.341-1.207-.334-.411-.708-.606-1.123-.587-.413.017-.846.211-1.299.581Zm3.405 9.263-.281-.512 1.901-1.039-1.14-2.092-1.901 1.039-.281-.515 4.077-2.228.281.515-1.722.943 1.14 2.092 1.722-.943.281.512Zm6.364 3.721-3.909 1.317.188.564-1.655.556-.176-.532 1.16-.391-1.019-3.029-1.16.391-.18-.532 1.655-.556.116.341c.301.061.632.106.995.133a10.37 10.37 0 0 0 1.117.02c.383-.014.761-.046 1.131-.099a8.012 8.012 0 0 0 1.053-.217Zm-.683-.379-.336-1.001a6.5 6.5 0 0 1-.851.153c-.32.038-.654.061-1.001.069a13.026 13.026 0 0 1-1.019-.017 5.746 5.746 0 0 1-.894-.11l.689 2.054ZM46.194 91.073l-.521.298c.255.461.386.863.396 1.206.009.345-.072.64-.246.886a2.083 2.083 0 0 1-.683.61 2.256 2.256 0 0 1-.614.237 1.518 1.518 0 0 1-.677-.003 1.73 1.73 0 0 1-.686-.341c-.226-.178-.442-.44-.648-.787l-.648.37-.301-.524.648-.37c-.199-.361-.317-.687-.353-.978a1.663 1.663 0 0 1 .061-.767 1.54 1.54 0 0 1 .347-.573 2.263 2.263 0 0 1 .504-.396c.273-.158.56-.249.859-.272a1.47 1.47 0 0 1 .894.237c.297.179.579.493.845.94l.521-.298Zm-1.267.029c-.191-.313-.388-.534-.59-.666a.96.96 0 0 0-.613-.171 1.524 1.524 0 0 0-.637.208c-.351.201-.571.459-.66.776-.089.318-.014.704.226 1.157Zm.301.524-2.274 1.305c.276.447.574.707.894.781.322.073.652.013.992-.179.224-.13.394-.28.512-.451a.952.952 0 0 0 .153-.616c-.014-.239-.106-.519-.278-.839Zm4.042 7.669c-.381.33-.768.551-1.163.666a1.954 1.954 0 0 1-1.151-.006c-.375-.116-.72-.357-1.036-.724-.329-.382-.522-.768-.581-1.157a1.887 1.887 0 0 1 .176-1.134c.177-.368.457-.716.839-1.044.374-.322.756-.543 1.146-.663a1.9 1.9 0 0 1 1.146-.003c.376.116.729.366 1.059.749.316.369.504.746.564 1.131.061.383.006.762-.168 1.134-.172.374-.449.724-.831 1.05Zm-2.5-2.908c-.463.399-.744.812-.842 1.239-.097.426.033.846.391 1.261.357.414.752.605 1.186.57.434-.035.883-.252 1.346-.651.464-.398.745-.807.842-1.227.096-.418-.035-.836-.394-1.253-.359-.417-.754-.609-1.186-.579-.43.029-.878.242-1.343.639Zm6.873 3.563c.488.401.765.791.83 1.169.065.376-.046.74-.333 1.091a1.611 1.611 0 0 1-.616.46c-.241.104-.517.122-.827.055-.309-.068-.65-.255-1.024-.561l-.431-.356-1.201 1.459-.472-.388 3.081-3.744Zm-.373.368-.477-.394-1.218 1.479.376.31c.359.295.672.457.941.486.27.027.518-.096.744-.37.198-.243.269-.488.211-.735-.056-.247-.248-.505-.576-.776Zm1.037 6.164 2.416-4.204 3.154 1.814-2.416 4.204-.524-.304 2.15-3.741-2.101-1.206-2.149 3.741Zm10.859 2.276c-.166.475-.392.859-.677 1.155a1.97 1.97 0 0 1-1.004.57c-.382.087-.801.05-1.259-.11-.474-.168-.835-.405-1.079-.712a1.892 1.892 0 0 1-.411-1.074c-.029-.409.041-.851.208-1.325.164-.466.383-.849.66-1.146.278-.297.608-.488.993-.573.383-.087.814-.045 1.293.124.457.161.807.393 1.05.697.243.303.383.659.419 1.068.038.409-.026.851-.194 1.325Zm-3.617-1.273c-.203.577-.24 1.073-.113 1.49.127.417.449.716.967.897.516.181.955.148 1.314-.098.359-.245.639-.656.842-1.233.204-.577.244-1.071.119-1.481-.124-.411-.445-.707-.964-.888-.521-.183-.961-.154-1.319.087-.359.241-.641.65-.845 1.227Zm8.432.249c-.514-.085-.946.02-1.299.315-.352.295-.577.742-.677 1.34-.098.594-.039 1.087.179 1.479.218.392.602.634 1.152.726.206.033.406.046.599.041a5.891 5.891 0 0 0 .576-.041l-.087.524a2.827 2.827 0 0 1-.579.055 4.16 4.16 0 0 1-.686-.067c-.488-.08-.878-.246-1.169-.501a1.885 1.885 0 0 1-.59-.981c-.103-.4-.112-.849-.029-1.351.079-.48.238-.89.478-1.23a2.04 2.04 0 0 1 .923-.735c.378-.15.813-.185 1.305-.104.505.085.93.253 1.273.503l-.324.466a4.093 4.093 0 0 0-.463-.26 2.016 2.016 0 0 0-.581-.179Zm4.828 4.744-.611-.008.049-4.314-1.516-.017.006-.535 3.637.043-.006.535-1.511-.017Zm0 0" fill="#fff"></path>
  <g transform="translate(421.994 606.714)" fill="#fff"></g>
  <g transform="translate(442.08 604.025)" fill="#fff"></g>
  <path d="m87.217 105.326.174.512-2.011.686 1.389 4.08-.579.197-1.563-4.592Zm2.9-1.353c.563-.289 1.031-.389 1.403-.301.372.087.661.332.868.735a1.594 1.594 0 0 1 .182.752c0 .262-.093.523-.278.781-.185.257-.493.496-.923.718l-.498.255.865 1.681-.541.281-2.219-4.311Zm.191.489-.553.284.877 1.704.437-.223c.411-.212.681-.435.813-.671.133-.237.119-.515-.043-.833-.145-.278-.343-.438-.593-.483-.249-.046-.561.028-.937.223Zm8.5-.318-1.357-.862-1.551 1.137.422 1.551-.498.367-1.357-5.049.443-.324 4.407 2.807Zm-1.832-1.192-1.305-.859-.171-.122a18.912 18.912 0 0 1-.249-.182 4.145 4.145 0 0 0-.197-.144c.056.133.107.265.153.396s.082.236.107.312l.425 1.505Zm6.793-3.535-.425.443-1.632-1.568-1.725 1.791 1.632 1.568-.422.44-3.495-3.362.422-.44 1.479 1.424 1.725-1.791-1.479-1.424.425-.443Zm2.719-3.569-1.021 1.424-.286-.206.225-.538-3.148-2.263-.443.382-.286-.206 1.021-1.424.286.206-.223.544 3.148 2.263.44-.388Zm2.189-3.628-.292.535-3.791-2.057-.723 1.334-.472-.257 1.736-3.197.472.257-.72 1.328ZM37.988 79.363l.589-.691c.414-.491.54-.681.535-1.022-.009-.487-.389-.813-.881-.817-.521 0-.954.36-.925.896h.472c-.019-.287.18-.462.428-.458.224 0 .433.127.433.433 0 .171-.054.287-.399.692l-1.183 1.402h2.128v-.433Zm3.606.472c.697 0 1.071-.628 1.071-1.499 0-.871-.375-1.499-1.071-1.499-.705 0-1.071.629-1.071 1.499 0 .872.365 1.5 1.07 1.5Zm0-.433c-.423 0-.603-.433-.603-1.066s.18-1.066.603-1.066c.424 0 .604.433.604 1.066s-.18 1.066-.604 1.066Zm65.216-.039.589-.691c.414-.491.54-.681.535-1.022-.009-.487-.389-.813-.881-.817-.521 0-.954.36-.925.896h.472c-.019-.287.18-.462.428-.458.224 0 .433.127.433.433 0 .171-.054.287-.399.692l-1.183 1.402h2.127v-.433Zm3.187 0 .589-.691c.414-.491.54-.681.535-1.022-.009-.487-.389-.813-.881-.817-.521 0-.954.36-.925.896h.472c-.019-.287.18-.462.428-.458.224 0 .433.127.433.433 0 .171-.054.287-.399.692l-1.183 1.402h2.127v-.433Zm0 0" fill="#fff"></path>
</svg>